<?xml version="1.0" encoding="UTF-8" standalone="no"?>
<svg
   height="48"
   width="48"
   version="1.1"
   id="svg1658"
   sodipodi:docname="expand-more.svg"
   inkscape:version="1.2.2 (1:1.2.2+202212051552+b0a8486541)"
   xmlns:inkscape="http://www.inkscape.org/namespaces/inkscape"
   xmlns:sodipodi="http://sodipodi.sourceforge.net/DTD/sodipodi-0.dtd"
   xmlns="http://www.w3.org/2000/svg"
   xmlns:svg="http://www.w3.org/2000/svg">
  <defs
     id="defs1662" />
  <sodipodi:namedview
     id="namedview1660"
     pagecolor="#ffffff"
     bordercolor="#000000"
     borderopacity="0.25"
     inkscape:showpageshadow="2"
     inkscape:pageopacity="0.0"
     inkscape:pagecheckerboard="0"
     inkscape:deskcolor="#d1d1d1"
     showgrid="false"
     inkscape:zoom="16.416667"
     inkscape:cx="24.091371"
     inkscape:cy="24.091371"
     inkscape:window-width="1920"
     inkscape:window-height="1016"
     inkscape:window-x="0"
     inkscape:window-y="0"
     inkscape:window-maximized="1"
     inkscape:current-layer="svg1658" />
  <path
     d="M24 30.15q-.3 0-.55-.1-.25-.1-.5-.35l-9.9-9.9q-.4-.4-.375-1.075.025-.675.425-1.075.5-.5 1.075-.425.575.075 1.025.475l8.8 8.8 8.8-8.8q.4-.4 1.075-.45.675-.05 1.075.45.5.4.425 1.05-.075.65-.475 1.1l-9.85 9.85q-.25.25-.5.35-.25.1-.55.1Z"
     id="path1656"
     style="fill:#354259;fill-opacity:1" />
</svg>
