<?xml version="1.0" encoding="UTF-8" standalone="no"?>
<svg
   enable-background="new 0 0 24 24"
   height="24px"
   viewBox="0 0 24 24"
   width="24px"
   fill="#000000"
   version="1.1"
   id="svg1221"
   sodipodi:docname="calendar_month.svg"
   inkscape:version="1.2.2 (1:1.2.2+202212051552+b0a8486541)"
   xmlns:inkscape="http://www.inkscape.org/namespaces/inkscape"
   xmlns:sodipodi="http://sodipodi.sourceforge.net/DTD/sodipodi-0.dtd"
   xmlns="http://www.w3.org/2000/svg"
   xmlns:svg="http://www.w3.org/2000/svg">
  <defs
     id="defs1225" />
  <sodipodi:namedview
     id="namedview1223"
     pagecolor="#ffffff"
     bordercolor="#000000"
     borderopacity="0.25"
     inkscape:showpageshadow="2"
     inkscape:pageopacity="0.0"
     inkscape:pagecheckerboard="0"
     inkscape:deskcolor="#d1d1d1"
     showgrid="false"
     inkscape:zoom="33.875"
     inkscape:cx="12"
     inkscape:cy="12"
     inkscape:window-width="1920"
     inkscape:window-height="1016"
     inkscape:window-x="0"
     inkscape:window-y="0"
     inkscape:window-maximized="1"
     inkscape:current-layer="svg1221" />
  <g
     id="g1215">
    <rect
       fill="none"
       height="24"
       width="24"
       id="rect1211" />
    <rect
       fill="none"
       height="24"
       width="24"
       id="rect1213" />
  </g>
  <g
     id="g1219"
     style="fill:#354259;fill-opacity:1">
    <path
       d="M17,2c-0.55,0-1,0.45-1,1v1H8V3c0-0.55-0.45-1-1-1S6,2.45,6,3v1H5C3.89,4,3.01,4.9,3.01,6L3,20c0,1.1,0.89,2,2,2h14 c1.1,0,2-0.9,2-2V6c0-1.1-0.9-2-2-2h-1V3C18,2.45,17.55,2,17,2z M19,20H5V10h14V20z M11,13c0-0.55,0.45-1,1-1s1,0.45,1,1 s-0.45,1-1,1S11,13.55,11,13z M7,13c0-0.55,0.45-1,1-1s1,0.45,1,1s-0.45,1-1,1S7,13.55,7,13z M15,13c0-0.55,0.45-1,1-1s1,0.45,1,1 s-0.45,1-1,1S15,13.55,15,13z M11,17c0-0.55,0.45-1,1-1s1,0.45,1,1s-0.45,1-1,1S11,17.55,11,17z M7,17c0-0.55,0.45-1,1-1 s1,0.45,1,1s-0.45,1-1,1S7,17.55,7,17z M15,17c0-0.55,0.45-1,1-1s1,0.45,1,1s-0.45,1-1,1S15,17.55,15,17z"
       id="path1217"
       style="fill:#354259;fill-opacity:1" />
  </g>
</svg>
